# xmcd CD database file
#
# Track frame offsets:
#	150
#	14790
#	36642
#	51817
#	68390
#	80697
#	95071
#	107345
#	119423
#	135062
#	146065
#	156187
#	165778
#	178995
#	189703
#	204621
#	220528
#
# Disc length: 3153 seconds
#
# Revision: 0
# Processed by: cddbd v1.5.2PL0 Copyright (c) Steve Scherf et al.
# Submitted via: CDex 1.51
#
DISCID=ee0c4f11
DTITLE=Various Artist - THE ULTIMATE COUNTRY COLLECTION CD03
DYEAR=1900
DGENRE=Country
TTITLE0=Glen Campbell - Rhinestone Cowboy
TTITLE1=Dan Seals - Evrything That Glitters Is Not Gold
TTITLE2=Don Williams - Send Her Roses
TTITLE3=Kenny Rogers - Lucille 
TTITLE4=Hank Williams - Your Cheating Heart
TTITLE5=Eddie Rabbitt - I Love A Rainy Night
TTITLE6=Charlie Rich - The Most Beutiful Girl In The World
TTITLE7=Tom Jones - Green Green Grass From Home
TTITLE8=Cleve Francis and Patti Austin - We Fell In Love Anyway
TTITLE9=Alabamba - I'll Be There Call On Me
TTITLE10=Faron Young - Let's Pretend
TTITLE11=George Jones - The Race Is On
TTITLE12=Roy Acuff - Great Speckle Bird
TTITLE13=Slim Whitman - Rose Marie
TTITLE14=Asleep At The Wheel - Lay Down Sally
TTITLE15=The Band - The Night They Drove Old Dixie Down 
TTITLE16=Ronnie Mislap - If You Go Away
EXTD=
EXTT0=
EXTT1=
EXTT2=
EXTT3=
EXTT4=
EXTT5=
EXTT6=
EXTT7=
EXTT8=
EXTT9=
EXTT10=
EXTT11=
EXTT12=
EXTT13=
EXTT14=
EXTT15=
EXTT16=
PLAYORDER=
